<mxfile host="Electron" modified="2024-01-10T08:39:41.569Z" agent="Mozilla/5.0 (X11; Linux x86_64) AppleWebKit/537.36 (KHTML, like Gecko) draw.io/22.1.16 Chrome/120.0.6099.109 Electron/28.1.0 Safari/537.36" etag="4VJdGQSCcbzObJZdlx76" version="22.1.16" type="device">
  <diagram name="Page-1" id="Gw2jQE9huXp8aEsbIeLF">
    <mxGraphModel dx="2074" dy="1230" grid="1" gridSize="10" guides="1" tooltips="1" connect="1" arrows="1" fold="1" page="1" pageScale="1" pageWidth="850" pageHeight="1100" math="0" shadow="0">
      <root>
        <mxCell id="0" />
        <mxCell id="1" parent="0" />
        <mxCell id="RBTKQr-AhavlZPnNk3ZX-32" style="edgeStyle=orthogonalEdgeStyle;rounded=0;orthogonalLoop=1;jettySize=auto;html=1;" parent="1" source="RBTKQr-AhavlZPnNk3ZX-1" target="RBTKQr-AhavlZPnNk3ZX-31" edge="1">
          <mxGeometry relative="1" as="geometry" />
        </mxCell>
        <mxCell id="RBTKQr-AhavlZPnNk3ZX-37" value="&amp;lt;&amp;lt;navigate&amp;gt;&amp;gt;" style="rounded=0;orthogonalLoop=1;jettySize=auto;html=1;" parent="1" source="RBTKQr-AhavlZPnNk3ZX-1" target="RBTKQr-AhavlZPnNk3ZX-36" edge="1">
          <mxGeometry relative="1" as="geometry" />
        </mxCell>
        <mxCell id="RBTKQr-AhavlZPnNk3ZX-1" value="View an Assignment" style="ellipse;whiteSpace=wrap;html=1;" parent="1" vertex="1">
          <mxGeometry x="160" y="280" width="160" height="80" as="geometry" />
        </mxCell>
        <mxCell id="RBTKQr-AhavlZPnNk3ZX-4" style="rounded=0;orthogonalLoop=1;jettySize=auto;html=1;endArrow=none;endFill=0;" parent="1" source="RBTKQr-AhavlZPnNk3ZX-2" target="RBTKQr-AhavlZPnNk3ZX-1" edge="1">
          <mxGeometry relative="1" as="geometry" />
        </mxCell>
        <mxCell id="RBTKQr-AhavlZPnNk3ZX-10" style="rounded=0;orthogonalLoop=1;jettySize=auto;html=1;endArrow=none;endFill=0;" parent="1" source="RBTKQr-AhavlZPnNk3ZX-2" target="RBTKQr-AhavlZPnNk3ZX-9" edge="1">
          <mxGeometry relative="1" as="geometry" />
        </mxCell>
        <mxCell id="RBTKQr-AhavlZPnNk3ZX-16" style="rounded=0;orthogonalLoop=1;jettySize=auto;html=1;endArrow=none;endFill=0;" parent="1" source="RBTKQr-AhavlZPnNk3ZX-2" target="RBTKQr-AhavlZPnNk3ZX-15" edge="1">
          <mxGeometry relative="1" as="geometry" />
        </mxCell>
        <mxCell id="RBTKQr-AhavlZPnNk3ZX-21" value="&amp;lt;&amp;lt;navigate&amp;gt;&amp;gt;" style="rounded=0;orthogonalLoop=1;jettySize=auto;html=1;endArrow=classic;endFill=1;" parent="1" source="RBTKQr-AhavlZPnNk3ZX-15" target="RBTKQr-AhavlZPnNk3ZX-20" edge="1">
          <mxGeometry relative="1" as="geometry" />
        </mxCell>
        <mxCell id="RBTKQr-AhavlZPnNk3ZX-39" style="rounded=0;orthogonalLoop=1;jettySize=auto;html=1;endArrow=none;endFill=0;" parent="1" source="RBTKQr-AhavlZPnNk3ZX-2" target="RBTKQr-AhavlZPnNk3ZX-38" edge="1">
          <mxGeometry relative="1" as="geometry" />
        </mxCell>
        <mxCell id="RBTKQr-AhavlZPnNk3ZX-2" value="Teacher" style="shape=umlActor;verticalLabelPosition=bottom;verticalAlign=top;html=1;" parent="1" vertex="1">
          <mxGeometry x="40" y="160" width="40" height="80" as="geometry" />
        </mxCell>
        <mxCell id="RBTKQr-AhavlZPnNk3ZX-6" style="rounded=0;orthogonalLoop=1;jettySize=auto;html=1;endArrow=none;endFill=0;" parent="1" source="RBTKQr-AhavlZPnNk3ZX-3" target="RBTKQr-AhavlZPnNk3ZX-5" edge="1">
          <mxGeometry relative="1" as="geometry" />
        </mxCell>
        <mxCell id="RBTKQr-AhavlZPnNk3ZX-12" style="rounded=0;orthogonalLoop=1;jettySize=auto;html=1;endArrow=none;endFill=0;" parent="1" source="RBTKQr-AhavlZPnNk3ZX-3" target="RBTKQr-AhavlZPnNk3ZX-11" edge="1">
          <mxGeometry relative="1" as="geometry" />
        </mxCell>
        <mxCell id="RBTKQr-AhavlZPnNk3ZX-18" style="rounded=0;orthogonalLoop=1;jettySize=auto;html=1;endArrow=none;endFill=0;" parent="1" source="RBTKQr-AhavlZPnNk3ZX-3" target="RBTKQr-AhavlZPnNk3ZX-17" edge="1">
          <mxGeometry relative="1" as="geometry" />
        </mxCell>
        <mxCell id="RBTKQr-AhavlZPnNk3ZX-3" value="Student" style="shape=umlActor;verticalLabelPosition=bottom;verticalAlign=top;html=1;" parent="1" vertex="1">
          <mxGeometry x="40" y="760" width="40" height="80" as="geometry" />
        </mxCell>
        <mxCell id="RBTKQr-AhavlZPnNk3ZX-30" value="&amp;lt;&amp;lt;&amp;lt;includes&amp;gt;&amp;gt;" style="edgeStyle=orthogonalEdgeStyle;rounded=0;orthogonalLoop=1;jettySize=auto;html=1;endArrow=classic;endFill=1;dashed=1;" parent="1" source="RBTKQr-AhavlZPnNk3ZX-5" target="RBTKQr-AhavlZPnNk3ZX-29" edge="1">
          <mxGeometry relative="1" as="geometry" />
        </mxCell>
        <mxCell id="RBTKQr-AhavlZPnNk3ZX-5" value="Accept an Assignment" style="ellipse;whiteSpace=wrap;html=1;" parent="1" vertex="1">
          <mxGeometry x="160" y="880" width="160" height="80" as="geometry" />
        </mxCell>
        <mxCell id="RBTKQr-AhavlZPnNk3ZX-7" value="Create an Assignment" style="ellipse;whiteSpace=wrap;html=1;" parent="1" vertex="1">
          <mxGeometry x="440" y="160" width="160" height="80" as="geometry" />
        </mxCell>
        <mxCell id="RBTKQr-AhavlZPnNk3ZX-24" value="&amp;lt;&amp;lt;navigate&amp;gt;&amp;gt;" style="edgeStyle=orthogonalEdgeStyle;rounded=0;orthogonalLoop=1;jettySize=auto;html=1;entryX=0;entryY=0.5;entryDx=0;entryDy=0;" parent="1" source="RBTKQr-AhavlZPnNk3ZX-9" target="RBTKQr-AhavlZPnNk3ZX-13" edge="1">
          <mxGeometry relative="1" as="geometry" />
        </mxCell>
        <mxCell id="RBTKQr-AhavlZPnNk3ZX-9" value="View Teacher Dashboard" style="ellipse;whiteSpace=wrap;html=1;" parent="1" vertex="1">
          <mxGeometry x="160" y="40" width="160" height="80" as="geometry" />
        </mxCell>
        <mxCell id="RBTKQr-AhavlZPnNk3ZX-34" value="&amp;lt;&amp;lt;navigate&amp;gt;&amp;gt;" style="edgeStyle=orthogonalEdgeStyle;rounded=0;orthogonalLoop=1;jettySize=auto;html=1;" parent="1" source="RBTKQr-AhavlZPnNk3ZX-11" target="RBTKQr-AhavlZPnNk3ZX-33" edge="1">
          <mxGeometry relative="1" as="geometry" />
        </mxCell>
        <mxCell id="RBTKQr-AhavlZPnNk3ZX-11" value="View Student Dashboard" style="ellipse;whiteSpace=wrap;html=1;" parent="1" vertex="1">
          <mxGeometry x="160" y="640" width="160" height="80" as="geometry" />
        </mxCell>
        <mxCell id="RBTKQr-AhavlZPnNk3ZX-28" value="&amp;lt;&amp;lt;includes&amp;gt;&amp;gt;" style="edgeStyle=orthogonalEdgeStyle;rounded=0;orthogonalLoop=1;jettySize=auto;html=1;endArrow=classic;endFill=1;dashed=1;" parent="1" source="RBTKQr-AhavlZPnNk3ZX-13" target="RBTKQr-AhavlZPnNk3ZX-27" edge="1">
          <mxGeometry relative="1" as="geometry" />
        </mxCell>
        <mxCell id="RBTKQr-AhavlZPnNk3ZX-13" value="Create a Classroom" style="ellipse;whiteSpace=wrap;html=1;" parent="1" vertex="1">
          <mxGeometry x="440" y="40" width="160" height="80" as="geometry" />
        </mxCell>
        <mxCell id="RBTKQr-AhavlZPnNk3ZX-25" value="&amp;lt;&amp;lt;navigate&amp;gt;&amp;gt;" style="edgeStyle=orthogonalEdgeStyle;rounded=0;orthogonalLoop=1;jettySize=auto;html=1;entryX=0;entryY=0.5;entryDx=0;entryDy=0;" parent="1" source="RBTKQr-AhavlZPnNk3ZX-15" target="RBTKQr-AhavlZPnNk3ZX-7" edge="1">
          <mxGeometry relative="1" as="geometry" />
        </mxCell>
        <mxCell id="RBTKQr-AhavlZPnNk3ZX-15" value="View a Classroom" style="ellipse;whiteSpace=wrap;html=1;" parent="1" vertex="1">
          <mxGeometry x="160" y="160" width="160" height="80" as="geometry" />
        </mxCell>
        <mxCell id="RBTKQr-AhavlZPnNk3ZX-17" value="Join a Classroom" style="ellipse;whiteSpace=wrap;html=1;" parent="1" vertex="1">
          <mxGeometry x="160" y="760" width="160" height="80" as="geometry" />
        </mxCell>
        <mxCell id="RBTKQr-AhavlZPnNk3ZX-20" value="View all Assignments for a Student" style="ellipse;whiteSpace=wrap;html=1;" parent="1" vertex="1">
          <mxGeometry x="440" y="280" width="160" height="80" as="geometry" />
        </mxCell>
        <mxCell id="RBTKQr-AhavlZPnNk3ZX-22" value="Gitlab Classrooms" style="shape=umlFrame;whiteSpace=wrap;html=1;pointerEvents=0;width=110;height=30;" parent="1" vertex="1">
          <mxGeometry x="120" width="520" height="1120" as="geometry" />
        </mxCell>
        <mxCell id="RBTKQr-AhavlZPnNk3ZX-23" value="Gitlab" style="shape=umlFrame;whiteSpace=wrap;html=1;pointerEvents=0;width=70;height=30;" parent="1" vertex="1">
          <mxGeometry x="720" width="240" height="1120" as="geometry" />
        </mxCell>
        <mxCell id="RBTKQr-AhavlZPnNk3ZX-27" value="Create Gitlab groups hierarchy" style="ellipse;whiteSpace=wrap;html=1;" parent="1" vertex="1">
          <mxGeometry x="760" y="40" width="160" height="80" as="geometry" />
        </mxCell>
        <mxCell id="RBTKQr-AhavlZPnNk3ZX-29" value="Create Gitlab Repository" style="ellipse;whiteSpace=wrap;html=1;" parent="1" vertex="1">
          <mxGeometry x="760" y="880" width="160" height="80" as="geometry" />
        </mxCell>
        <mxCell id="RBTKQr-AhavlZPnNk3ZX-31" value="Export Assignment Grades" style="ellipse;whiteSpace=wrap;html=1;fillColor=#a20025;strokeColor=#6F0000;fontColor=#ffffff;" parent="1" vertex="1">
          <mxGeometry x="160" y="400" width="160" height="80" as="geometry" />
        </mxCell>
        <mxCell id="RBTKQr-AhavlZPnNk3ZX-35" value="&amp;lt;&amp;lt;navigate&amp;gt;&amp;gt;" style="rounded=0;orthogonalLoop=1;jettySize=auto;html=1;" parent="1" source="RBTKQr-AhavlZPnNk3ZX-33" target="RBTKQr-AhavlZPnNk3ZX-5" edge="1">
          <mxGeometry relative="1" as="geometry" />
        </mxCell>
        <mxCell id="RBTKQr-AhavlZPnNk3ZX-33" value="View un-accepted Assignments" style="ellipse;whiteSpace=wrap;html=1;fillColor=#a20025;fontColor=#ffffff;strokeColor=#6F0000;" parent="1" vertex="1">
          <mxGeometry x="440" y="640" width="160" height="80" as="geometry" />
        </mxCell>
        <mxCell id="RBTKQr-AhavlZPnNk3ZX-36" value="View All Students Grades for an Assignment" style="ellipse;whiteSpace=wrap;html=1;" parent="1" vertex="1">
          <mxGeometry x="440" y="400" width="160" height="80" as="geometry" />
        </mxCell>
        <mxCell id="RBTKQr-AhavlZPnNk3ZX-42" value="&amp;lt;&amp;lt;includes&amp;gt;&amp;gt;" style="edgeStyle=orthogonalEdgeStyle;rounded=0;orthogonalLoop=1;jettySize=auto;html=1;dashed=1;" parent="1" source="RBTKQr-AhavlZPnNk3ZX-38" target="RBTKQr-AhavlZPnNk3ZX-41" edge="1">
          <mxGeometry relative="1" as="geometry" />
        </mxCell>
        <mxCell id="RBTKQr-AhavlZPnNk3ZX-38" value="Archive a Classroom" style="ellipse;whiteSpace=wrap;html=1;fillColor=#a20025;fontColor=#ffffff;strokeColor=#6F0000;" parent="1" vertex="1">
          <mxGeometry x="160" y="520" width="160" height="80" as="geometry" />
        </mxCell>
        <mxCell id="RBTKQr-AhavlZPnNk3ZX-41" value="Archive Gitlab repositories" style="ellipse;whiteSpace=wrap;html=1;" parent="1" vertex="1">
          <mxGeometry x="760" y="520" width="160" height="80" as="geometry" />
        </mxCell>
        <mxCell id="vzpjhUl1-XeMnDPPOXM_-4" style="rounded=0;orthogonalLoop=1;jettySize=auto;html=1;endArrow=none;endFill=0;" edge="1" parent="1" source="vzpjhUl1-XeMnDPPOXM_-1" target="vzpjhUl1-XeMnDPPOXM_-2">
          <mxGeometry relative="1" as="geometry" />
        </mxCell>
        <mxCell id="vzpjhUl1-XeMnDPPOXM_-1" value="Student" style="shape=umlActor;verticalLabelPosition=bottom;verticalAlign=top;html=1;" vertex="1" parent="1">
          <mxGeometry x="1000" y="640" width="40" height="80" as="geometry" />
        </mxCell>
        <mxCell id="vzpjhUl1-XeMnDPPOXM_-2" value="Push Code" style="ellipse;whiteSpace=wrap;html=1;" vertex="1" parent="1">
          <mxGeometry x="760" y="640" width="160" height="80" as="geometry" />
        </mxCell>
        <mxCell id="vzpjhUl1-XeMnDPPOXM_-3" value="Executes autograding" style="ellipse;whiteSpace=wrap;html=1;" vertex="1" parent="1">
          <mxGeometry x="760" y="760" width="160" height="80" as="geometry" />
        </mxCell>
        <mxCell id="vzpjhUl1-XeMnDPPOXM_-5" value="&amp;lt;&amp;lt;includes&amp;gt;&amp;gt;" style="edgeStyle=orthogonalEdgeStyle;rounded=0;orthogonalLoop=1;jettySize=auto;html=1;endArrow=classic;endFill=1;dashed=1;" edge="1" parent="1" source="vzpjhUl1-XeMnDPPOXM_-2" target="vzpjhUl1-XeMnDPPOXM_-3">
          <mxGeometry relative="1" as="geometry">
            <mxPoint x="610" y="90" as="sourcePoint" />
            <mxPoint x="770" y="90" as="targetPoint" />
          </mxGeometry>
        </mxCell>
        <mxCell id="vzpjhUl1-XeMnDPPOXM_-6" value="Grade Assignment" style="ellipse;whiteSpace=wrap;html=1;" vertex="1" parent="1">
          <mxGeometry x="440" y="760" width="160" height="80" as="geometry" />
        </mxCell>
        <mxCell id="vzpjhUl1-XeMnDPPOXM_-7" value="&amp;lt;&amp;lt;includes&amp;gt;&amp;gt;" style="edgeStyle=orthogonalEdgeStyle;rounded=0;orthogonalLoop=1;jettySize=auto;html=1;endArrow=classic;endFill=1;dashed=1;" edge="1" parent="1" source="vzpjhUl1-XeMnDPPOXM_-3" target="vzpjhUl1-XeMnDPPOXM_-6">
          <mxGeometry relative="1" as="geometry">
            <mxPoint x="850" y="730" as="sourcePoint" />
            <mxPoint x="850" y="770" as="targetPoint" />
          </mxGeometry>
        </mxCell>
      </root>
    </mxGraphModel>
  </diagram>
</mxfile>
